<?xml version="1.0" encoding="UTF-8" standalone="no"?>
<!-- Created with Inkscape (http://www.inkscape.org/) -->
<svg xmlns:svg="http://www.w3.org/2000/svg" xmlns="http://www.w3.org/2000/svg" xmlns:xlink="http://www.w3.org/1999/xlink" version="1.0" width="959.87671" height="512.43176" id="svg2">
  <defs id="defs4">
    <linearGradient id="linearGradient10379">
      <stop id="stop10381" style="stop-color:#646f78;stop-opacity:1" offset="0"/>
      <stop id="stop10383" style="stop-color:#7d7d7d;stop-opacity:1" offset="1"/>
    </linearGradient>
    <linearGradient id="linearGradient10363">
      <stop id="stop10365" style="stop-color:#bfbfbf;stop-opacity:1" offset="0"/>
      <stop id="stop10367" style="stop-color:#5c5f63;stop-opacity:1" offset="1"/>
    </linearGradient>
    <marker refX="0" refY="0" orient="auto" id="Arrow1Send" style="overflow:visible">
      <path d="M 0,0 5,-5 -12.5,0 5,5 0,0 z" transform="matrix(-0.2,0,0,-0.2,-1.2,0)" id="path3733" style="fill-rule:evenodd;stroke:#000000;stroke-width:1pt;marker-start:none"/>
    </marker>
    <marker refX="0" refY="0" orient="auto" id="Arrow1Mend" style="overflow:visible">
      <path d="M 0,0 5,-5 -12.5,0 5,5 0,0 z" transform="matrix(-0.4,0,0,-0.4,-4,0)" id="path3727" style="fill-rule:evenodd;stroke:#000000;stroke-width:1pt;marker-start:none"/>
    </marker>
    <marker refX="0" refY="0" orient="auto" id="Arrow2Send" style="overflow:visible">
      <path d="M 8.7185878,4.0337352 -2.2072895,0.01601326 8.7185884,-4.0017078 c -1.7454984,2.3720609 -1.7354408,5.6174519 -6e-7,8.035443 z" transform="matrix(-0.3,0,0,-0.3,0.69,0)" id="path3751" style="fill-rule:evenodd;stroke-width:0.625;stroke-linejoin:round"/>
    </marker>
    <marker refX="0" refY="0" orient="auto" id="Arrow2Mend" style="overflow:visible">
      <path d="M 8.7185878,4.0337352 -2.2072895,0.01601326 8.7185884,-4.0017078 c -1.7454984,2.3720609 -1.7354408,5.6174519 -6e-7,8.035443 z" transform="scale(-0.6,-0.6)" id="path3745" style="fill-rule:evenodd;stroke-width:0.625;stroke-linejoin:round"/>
    </marker>
    <linearGradient id="linearGradient3167">
      <stop id="stop3169" style="stop-color:#6491bb;stop-opacity:1" offset="0"/>
      <stop id="stop3175" style="stop-color:#bdd3df;stop-opacity:1" offset="0.50296277"/>
      <stop id="stop3171" style="stop-color:#91cbda;stop-opacity:1" offset="1"/>
    </linearGradient>
    <linearGradient id="linearGradient3155">
      <stop id="stop3157" style="stop-color:#8e8779;stop-opacity:1" offset="0"/>
      <stop id="stop3163" style="stop-color:#9c8c78;stop-opacity:1" offset="0.14165708"/>
      <stop id="stop3179" style="stop-color:#5f5446;stop-opacity:1" offset="0.35096595"/>
      <stop id="stop3159" style="stop-color:#5a6a71;stop-opacity:1" offset="1"/>
    </linearGradient>
    <radialGradient cx="-33.134483" cy="598.26288" r="513.64557" fx="-33.134483" fy="598.26288" id="radialGradient2999" xlink:href="#linearGradient3155" gradientUnits="userSpaceOnUse" gradientTransform="matrix(3.44868,0.629224,-0.284178,1.55753,416.021,-442.737)"/>
    <linearGradient x1="860.19989" y1="296.55402" x2="891.65686" y2="291.5051" id="linearGradient3002" xlink:href="#linearGradient10363" gradientUnits="userSpaceOnUse" gradientTransform="matrix(0.214921,0.976631,-0.976631,0.214921,770.503,-288.412)"/>
    <linearGradient x1="860.19989" y1="296.55402" x2="891.65686" y2="291.5051" id="linearGradient3004" xlink:href="#linearGradient10379" gradientUnits="userSpaceOnUse" gradientTransform="matrix(0.214921,0.976631,-0.976631,0.214921,770.503,-288.412)"/>
    <linearGradient x1="896.52563" y1="282.1322" x2="908.12714" y2="318.97232" id="linearGradient3007" xlink:href="#linearGradient10363" gradientUnits="userSpaceOnUse" gradientTransform="translate(-250.188,312.209)"/>
    <linearGradient x1="896.52563" y1="282.1322" x2="908.12714" y2="318.97232" id="linearGradient3009" xlink:href="#linearGradient10379" gradientUnits="userSpaceOnUse" gradientTransform="translate(-250.188,312.209)"/>
    <linearGradient x1="849.04846" y1="251.32256" x2="873.29205" y2="284.12204" id="linearGradient3012" xlink:href="#linearGradient10363" gradientUnits="userSpaceOnUse" gradientTransform="matrix(0.657226,0.753694,-0.753694,0.657226,254.983,-212.968)"/>
    <linearGradient x1="849.04846" y1="251.32256" x2="873.29205" y2="284.12204" id="linearGradient3014" xlink:href="#linearGradient10379" gradientUnits="userSpaceOnUse" gradientTransform="matrix(0.657226,0.753694,-0.753694,0.657226,254.983,-212.968)"/>
    <linearGradient x1="869.75653" y1="277.08145" x2="878.32764" y2="303.3302" id="linearGradient3017" xlink:href="#linearGradient10363" gradientUnits="userSpaceOnUse" gradientTransform="translate(-224.934,308.674)"/>
    <linearGradient x1="869.75653" y1="277.08145" x2="878.32764" y2="303.3302" id="linearGradient3019" xlink:href="#linearGradient10379" gradientUnits="userSpaceOnUse" gradientTransform="translate(-224.934,308.674)"/>
    <linearGradient x1="926.53271" y1="256.44177" x2="951.0434" y2="298.78448" id="linearGradient3022" xlink:href="#linearGradient10363" gradientUnits="userSpaceOnUse" gradientTransform="matrix(0.98085,0.194766,-0.194766,0.98085,-189.449,156.206)"/>
    <linearGradient x1="926.53271" y1="256.44177" x2="951.0434" y2="298.78448" id="linearGradient3024" xlink:href="#linearGradient10379" gradientUnits="userSpaceOnUse" gradientTransform="matrix(0.98085,0.194766,-0.194766,0.98085,-189.449,156.206)"/>
    <linearGradient x1="849.04846" y1="251.32256" x2="873.29205" y2="284.12204" id="linearGradient3027" xlink:href="#linearGradient10363" gradientUnits="userSpaceOnUse" gradientTransform="translate(-178.972,343.019)"/>
    <linearGradient x1="849.04846" y1="251.32256" x2="873.29205" y2="284.12204" id="linearGradient3029" xlink:href="#linearGradient10379" gradientUnits="userSpaceOnUse" gradientTransform="translate(-178.972,343.019)"/>
    <radialGradient cx="303.62704" cy="624.58398" r="409.21429" fx="303.62704" fy="624.58398" id="radialGradient3032" xlink:href="#linearGradient3167" gradientUnits="userSpaceOnUse" gradientTransform="matrix(2.7028348,1.0255938,-0.41871633,1.1034793,-575.93654,-271.6061)"/>
    <linearGradient x1="953.64911" y1="311.05515" x2="937.63971" y2="266.64069" id="linearGradient3035" xlink:href="#linearGradient10363" gradientUnits="userSpaceOnUse" gradientTransform="matrix(-0.986783,0.162045,-0.162045,-0.986783,1602.93,735.6)"/>
    <linearGradient x1="953.64911" y1="311.05515" x2="937.63971" y2="266.64069" id="linearGradient3037" xlink:href="#linearGradient10379" gradientUnits="userSpaceOnUse" gradientTransform="matrix(-0.986783,0.162045,-0.162045,-0.986783,1602.93,735.6)"/>
    <linearGradient x1="880.3009" y1="269.76495" x2="846.74805" y2="257.4794" id="linearGradient3040" xlink:href="#linearGradient10363" gradientUnits="userSpaceOnUse" gradientTransform="matrix(-0.65275,-0.757573,0.757573,-0.65275,1061.23,1461.45)"/>
    <linearGradient x1="880.3009" y1="269.76495" x2="846.74805" y2="257.4794" id="linearGradient3042" xlink:href="#linearGradient10379" gradientUnits="userSpaceOnUse" gradientTransform="matrix(-0.65275,-0.757573,0.757573,-0.65275,1061.23,1461.45)"/>
    <linearGradient x1="905.11194" y1="247.78703" x2="908.12714" y2="279.57635" id="linearGradient3045" xlink:href="#linearGradient10363" gradientUnits="userSpaceOnUse" gradientTransform="matrix(0.967027,-0.254674,0.254674,0.967027,-277.212,570.726)"/>
    <linearGradient x1="905.11194" y1="247.78703" x2="908.12714" y2="279.57635" id="linearGradient3047" xlink:href="#linearGradient10379" gradientUnits="userSpaceOnUse" gradientTransform="matrix(0.967027,-0.254674,0.254674,0.967027,-277.212,570.726)"/>
    <linearGradient x1="916.93921" y1="322.70248" x2="907.62061" y2="282.23172" id="linearGradient3050" xlink:href="#linearGradient10363" gradientUnits="userSpaceOnUse" gradientTransform="matrix(-0.937964,0.346733,-0.346733,-0.937964,1593.17,553.736)"/>
    <linearGradient x1="916.93921" y1="322.70248" x2="907.62061" y2="282.23172" id="linearGradient3052" xlink:href="#linearGradient10379" gradientUnits="userSpaceOnUse" gradientTransform="matrix(-0.937964,0.346733,-0.346733,-0.937964,1593.17,553.736)"/>
  </defs>
  <g transform="translate(263.662,-236.146)" id="layer1">
    <path d="m 649.63676,594.21339 4.18064,-9.08418 -5.50078,-11.96707 -16.06684,-2.67634 -12.70801,12.23646 4.55329,12.31732 25.5417,-0.82619 z" id="path10407" style="fill:url(#linearGradient3050);fill-opacity:1;fill-rule:evenodd;stroke:url(#linearGradient3052);stroke-width:2;stroke-linecap:butt;stroke-linejoin:miter;stroke-miterlimit:4;stroke-opacity:1;stroke-dasharray:none"/>
    <path d="m 660.01568,607.27968 -11.41639,-11.61774 2.82614,-9.10106 1.12972,-7.60969 16.60636,-4.37341 4.83204,-5.45094 8.63873,5.0371 -3.03122,12.28884 4.98861,7.04298 -5.96175,13.06063 -9.82064,-1.59204 -8.7916,2.31533 z" id="path10353" style="fill:url(#linearGradient3045);fill-opacity:1;fill-rule:evenodd;stroke:url(#linearGradient3047);stroke-width:2;stroke-linecap:butt;stroke-linejoin:miter;stroke-miterlimit:4;stroke-opacity:1;stroke-dasharray:none"/>
    <path d="m 691.63421,645.18066 14.35231,-0.36576 3.24877,-14.79992 -5.48679,-3.27283 -4.59158,3.95627 -3.85039,-6.01623 -7.99436,1.55458 -5.56862,7.46493 7.6767,2.71933 2.21396,8.75963 z" id="path10395" style="fill:url(#linearGradient3040);fill-opacity:1;fill-rule:evenodd;stroke:url(#linearGradient3042);stroke-width:2;stroke-linecap:butt;stroke-linejoin:miter;stroke-miterlimit:4;stroke-opacity:1;stroke-dasharray:none"/>
    <path d="m 638.32866,609.1315 0.19302,-11.2922 -10.77181,-9.49161 -4.16557,5.80247 -7.9604,-0.67073 -7.66104,5.28339 -1.69553,14.60998 10.28073,6.50119 8.64384,-3.46682 9.95335,4.50761 9.47696,-4.62732 -6.29355,-7.15596 z" id="path10413" style="fill:url(#linearGradient3035);fill-opacity:1;fill-rule:evenodd;stroke:url(#linearGradient3037);stroke-width:2;stroke-linecap:butt;stroke-linejoin:miter;stroke-miterlimit:4;stroke-opacity:1;stroke-dasharray:none"/>
    <path d="m -122.51914,393.43489 c 87.94459,57.72284 1.48541,2.18917 43.96218,24.76467 -19.83562,59.14171 -2.76014,2.55733 -27.93803,104.39533 -11.30041,45.70723 23.39087,136.09838 38.54182,138.92962 15.15095,2.83123 41.30189,-19.33753 -24.33489,-142.21411 16.36321,-64.87657 24.93868,-88.46095 24.93868,-88.46095 0,0 276.52137,81.6226 342.36321,88.66864 175.36734,12.18416 363.82557,6.09911 424.07835,168.46793 l 0,138.57143 -833.61132,0.0203 12,-433.14286 z" id="path3165" style="opacity:0.95;fill:url(#radialGradient3032);fill-opacity:1;fill-rule:evenodd;stroke:#739abc;stroke-width:3;stroke-linecap:butt;stroke-linejoin:miter;stroke-miterlimit:4;stroke-opacity:0.49803904;stroke-dasharray:none"/>
    <path d="m 680.66777,595.84141 -9.09138,11.11168 9.09138,12.12183 6.06091,-2.02031 0,-6.06091 7.07107,1.01015 4.04061,-7.07107 -2.02031,-9.09137 -7.07106,4.04061 -8.08122,-4.04061 z" id="path10361" style="fill:url(#linearGradient3027);fill-opacity:1;fill-rule:evenodd;stroke:url(#linearGradient3029);stroke-width:2;stroke-linecap:butt;stroke-linejoin:miter;stroke-miterlimit:4;stroke-opacity:1;stroke-dasharray:none"/>
    <path d="m 669.32622,613.32715 -4.1458,10.5054 6.75309,12.66958 5.93777,-3.97033 7.33623,4.54637 8.91018,-3.3801 6.71763,-13.08433 -7.34332,-9.69715 -9.31077,0.21093 -7.73679,-7.71555 -10.49833,1.005 3.38011,8.91018 z" id="path10357" style="fill:url(#linearGradient3022);fill-opacity:1;fill-rule:evenodd;stroke:url(#linearGradient3024);stroke-width:2;stroke-linecap:butt;stroke-linejoin:miter;stroke-miterlimit:4;stroke-opacity:1;stroke-dasharray:none"/>
    <path d="m 649.85812,585.7399 -10.10152,6.06091 0,9.09138 12.12183,13.13198 10.10152,-8.08122 1.01016,-10.10152 4.04061,-4.04062 -11.11168,-11.11167 -6.06092,5.05076 z" id="path10359" style="fill:url(#linearGradient3017);fill-opacity:1;fill-rule:evenodd;stroke:url(#linearGradient3019);stroke-width:2;stroke-linecap:butt;stroke-linejoin:miter;stroke-miterlimit:4;stroke-opacity:1;stroke-dasharray:none"/>
    <path d="m 629.40994,601.09832 -14.34989,0.45077 -3.16105,14.8189 5.50607,3.24027 4.56807,-3.98339 3.88595,5.99331 7.98501,-1.6019 5.52431,-7.49778 -7.69266,-2.67382 -2.26581,-8.74636 z" id="path10419" style="fill:url(#linearGradient3012);fill-opacity:1;fill-rule:evenodd;stroke:url(#linearGradient3014);stroke-width:2;stroke-linecap:butt;stroke-linejoin:miter;stroke-miterlimit:4;stroke-opacity:1;stroke-dasharray:none"/>
    <path d="m 648.84797,601.39726 -7.07107,7.07107 1.01015,13.13198 14.14214,8.08122 16.16244,-7.07107 0,-13.13198 -24.24366,-8.08122 z" id="path10355" style="fill:url(#linearGradient3007);fill-opacity:1;fill-rule:evenodd;stroke:url(#linearGradient3009);stroke-width:2;stroke-linecap:butt;stroke-linejoin:miter;stroke-miterlimit:4;stroke-opacity:1;stroke-dasharray:none"/>
    <path d="m 687.92298,625.48503 -8.0903,-8.56284 -8.87893,1.95393 -10.21986,14.6609 10.0634,8.12863 10.08257,-1.18447 4.81461,3.07777 8.46387,-13.24015 -6.23536,-4.83377 z" id="path10401" style="fill:url(#linearGradient3002);fill-opacity:1;fill-rule:evenodd;stroke:url(#linearGradient3004);stroke-width:2;stroke-linecap:butt;stroke-linejoin:miter;stroke-miterlimit:4;stroke-opacity:1;stroke-dasharray:none"/>
    <path d="m -199.55029,222.27335 c 28.43445,21.27637 56.48403,125.91441 56.48403,125.91441 4.43206,111.57197 82.18325,333.35978 196.00708,341.52814 112.3044,8.05933 247.28178,-69.8508 332.48575,-92.45229 85.57463,-22.69981 203.18402,-18.37647 315.01523,50.55849 l -2.02031,122.96926 -1024.29112,0 0,-580.57378 c 0,0 97.88489,10.77939 126.31934,32.05577 z" id="path2383" style="fill:url(#radialGradient2999);fill-opacity:1;fill-rule:evenodd;stroke:#6b5b49;stroke-width:3;stroke-linecap:butt;stroke-linejoin:miter;stroke-miterlimit:4;stroke-opacity:1;stroke-dasharray:none"/>
  </g>
  <g id="layer2">
    <path d="m 214.06733,318.17142 c 37.71705,63.56222 86.33456,89.4988 139.17871,94.51283 48.10091,4.56398 99.23285,-7.82163 149.52502,-23.08928 l -7.11109,11.79138 45.93378,-25.94623 -55.89571,2.36347 14.76672,5.84375 c -50.08119,15.18887 -100.33735,27.19272 -146.32183,22.82956 -50.39017,-4.78119 -96.19361,-28.71496 -133.1567,-91.00659 -2.90524,-3.53906 -8.20582,-1.12615 -6.9189,2.70111 z" id="path3204" style="opacity:0.75;fill:#ffffff;fill-opacity:1;fill-rule:evenodd;stroke:none"/>
    <switch style="font-size:72px;font-style:normal;font-weight:normal;fill:#ffffff;fill-opacity:1;stroke:none;font-family:Bitstream Vera Serif"><text x="16.85713" y="264.71698" id="text8151-ca" xml:space="preserve" style="font-size:72px;font-style:normal;font-weight:normal;fill:#ffffff;fill-opacity:1;stroke:none;font-family:Bitstream Vera Serif" systemLanguage="ca"><tspan x="16.85713" y="264.71698" id="tspan8153-ca" style="font-size:32px;font-style:normal;font-variant:normal;font-weight:normal;font-stretch:normal;text-align:start;text-anchor:start;fill:#ffffff;fill-opacity:1;font-family:Bitstream Vera Sans">Zona</tspan><tspan x="16.85713" y="304.71698" id="tspan8155-ca" style="font-size:32px;font-style:normal;font-variant:normal;font-weight:normal;font-stretch:normal;text-align:start;text-anchor:start;fill:#ffffff;fill-opacity:1;font-family:Bitstream Vera Sans">d'erosió</tspan></text><text x="16.85713" y="264.71698" id="text8151" xml:space="preserve" style="font-size:72px;font-style:normal;font-weight:normal;fill:#ffffff;fill-opacity:1;stroke:none;font-family:Bitstream Vera Serif"><tspan x="16.85713" y="264.71698" id="tspan8153" style="font-size:32px;font-style:normal;font-variant:normal;font-weight:normal;font-stretch:normal;text-align:start;text-anchor:start;fill:#ffffff;fill-opacity:1;font-family:Bitstream Vera Sans">Zone of</tspan><tspan x="16.85713" y="304.71698" id="tspan8155" style="font-size:32px;font-style:normal;font-variant:normal;font-weight:normal;font-stretch:normal;text-align:start;text-anchor:start;fill:#ffffff;fill-opacity:1;font-family:Bitstream Vera Sans">Plucking</tspan></text></switch>
    <switch style="font-size:72px;font-style:normal;font-weight:normal;fill:#ffffff;fill-opacity:1;stroke:none;font-family:Bitstream Vera Serif"><text x="33.640598" y="396.974" id="text8167-ca" xml:space="preserve" style="font-size:72px;font-style:normal;font-weight:normal;fill:#ffffff;fill-opacity:1;stroke:none;font-family:Bitstream Vera Serif" systemLanguage="ca"><tspan x="33.640598" y="396.974" id="tspan8171-ca" style="font-size:32px;font-style:normal;font-variant:normal;font-weight:normal;font-stretch:normal;text-align:start;text-anchor:start;fill:#ffffff;fill-opacity:1;font-family:Bitstream Vera Sans">El tarn (llac)</tspan><tspan x="33.640598" y="436.974" id="tspan8175-ca" style="font-size:32px;font-style:normal;font-variant:normal;font-weight:normal;font-stretch:normal;text-align:start;text-anchor:start;fill:#ffffff;fill-opacity:1;font-family:Bitstream Vera Sans">es formarà aquí</tspan><tspan x="33.640598" y="476.974" id="tspan8177-ca" style="font-size:32px;font-style:normal;font-variant:normal;font-weight:normal;font-stretch:normal;text-align:start;text-anchor:start;fill:#ffffff;fill-opacity:1;font-family:Bitstream Vera Sans">quan la glacera es fongui</tspan></text><text x="33.640598" y="396.974" id="text8167" xml:space="preserve" style="font-size:72px;font-style:normal;font-weight:normal;fill:#ffffff;fill-opacity:1;stroke:none;font-family:Bitstream Vera Serif"><tspan x="33.640598" y="396.974" id="tspan8171" style="font-size:32px;font-style:normal;font-variant:normal;font-weight:normal;font-stretch:normal;text-align:start;text-anchor:start;fill:#ffffff;fill-opacity:1;font-family:Bitstream Vera Sans">Tarn (lake)</tspan><tspan x="33.640598" y="436.974" id="tspan8175" style="font-size:32px;font-style:normal;font-variant:normal;font-weight:normal;font-stretch:normal;text-align:start;text-anchor:start;fill:#ffffff;fill-opacity:1;font-family:Bitstream Vera Sans">will form here</tspan><tspan x="33.640598" y="476.974" id="tspan8177" style="font-size:32px;font-style:normal;font-variant:normal;font-weight:normal;font-stretch:normal;text-align:start;text-anchor:start;fill:#ffffff;fill-opacity:1;font-family:Bitstream Vera Sans">when glacier melts</tspan></text></switch>
    <switch style="font-size:73.37155151px;font-style:normal;font-weight:normal;fill:#ffffff;fill-opacity:1;stroke:none;font-family:Bitstream Vera Serif"><text x="741.79254" y="404.00803" transform="scale(0.98130674,1.0190494)" id="text8179-ca" xml:space="preserve" style="font-size:73.37155151px;font-style:normal;font-weight:normal;fill:#ffffff;fill-opacity:1;stroke:none;font-family:Bitstream Vera Serif" systemLanguage="ca"><tspan x="741.79254" y="404.00803" id="tspan8183-ca" style="font-size:32.60958099px;font-style:normal;font-variant:normal;font-weight:normal;font-stretch:normal;text-align:center;text-anchor:middle;fill:#ffffff;fill-opacity:1;font-family:Bitstream Vera Sans">Zona</tspan><tspan x="741.79254" y="444.76999" id="tspan8187-ca" style="font-size:32.60958099px;font-style:normal;font-variant:normal;font-weight:normal;font-stretch:normal;text-align:center;text-anchor:middle;fill:#ffffff;fill-opacity:1;font-family:Bitstream Vera Sans">d'abrasió</tspan></text><text x="741.79254" y="404.00803" transform="scale(0.98130674,1.0190494)" id="text8179" xml:space="preserve" style="font-size:73.37155151px;font-style:normal;font-weight:normal;fill:#ffffff;fill-opacity:1;stroke:none;font-family:Bitstream Vera Serif"><tspan x="741.79254" y="404.00803" id="tspan8183" style="font-size:32.60958099px;font-style:normal;font-variant:normal;font-weight:normal;font-stretch:normal;text-align:center;text-anchor:middle;fill:#ffffff;fill-opacity:1;font-family:Bitstream Vera Sans">Zone of</tspan><tspan x="741.79254" y="444.76999" id="tspan8187" style="font-size:32.60958099px;font-style:normal;font-variant:normal;font-weight:normal;font-stretch:normal;text-align:center;text-anchor:middle;fill:#ffffff;fill-opacity:1;font-family:Bitstream Vera Sans">Abrasion</tspan></text></switch>
    <switch style="font-size:72px;font-style:normal;font-weight:normal;fill:#2a5180;fill-opacity:1;stroke:none;font-family:Bitstream Vera Serif"><text x="539.12097" y="99.534798" id="text8189-ca" xml:space="preserve" style="font-size:72px;font-style:normal;font-weight:normal;fill:#2a5180;fill-opacity:1;stroke:none;font-family:Bitstream Vera Serif" systemLanguage="ca"><tspan x="539.12097" y="99.534798" id="tspan8193-ca" style="font-size:32px;font-style:normal;font-variant:normal;font-weight:normal;font-stretch:normal;text-align:center;text-anchor:middle;fill:#2a5180;fill-opacity:1;font-family:Bitstream Vera Sans">Gel</tspan><tspan x="539.12097" y="139.53479" id="tspan8197-ca" style="font-size:32px;font-style:normal;font-variant:normal;font-weight:normal;font-stretch:normal;text-align:center;text-anchor:middle;fill:#2a5180;fill-opacity:1;font-family:Bitstream Vera Sans">glacial</tspan></text><text x="539.12097" y="99.534798" id="text8189" xml:space="preserve" style="font-size:72px;font-style:normal;font-weight:normal;fill:#2a5180;fill-opacity:1;stroke:none;font-family:Bitstream Vera Serif"><tspan x="539.12097" y="99.534798" id="tspan8193" style="font-size:32px;font-style:normal;font-variant:normal;font-weight:normal;font-stretch:normal;text-align:center;text-anchor:middle;fill:#2a5180;fill-opacity:1;font-family:Bitstream Vera Sans">Glacial</tspan><tspan x="539.12097" y="139.53479" id="tspan8197" style="font-size:32px;font-style:normal;font-variant:normal;font-weight:normal;font-stretch:normal;text-align:center;text-anchor:middle;fill:#2a5180;fill-opacity:1;font-family:Bitstream Vera Sans">Ice</tspan></text></switch>
    <path d="M 152.0625,41.71875 136,45.625 135.84375,45.59375 c -0.15528,-0.02456 -0.31347,-0.02456 -0.46875,0 -0.26839,0.04913 -0.49212,0.17675 -0.6875,0.34375 l -2.96875,0.71875 2.84375,1.4375 c 0.24141,0.25501 0.56514,0.432564 0.9375,0.46875 l 14.9375,7.53125 c -1.0493,-1.88126 -1.57774,-3.952374 -1.59375,-6 L 241.625,60.6875 c 0.56001,0.116675 1.14837,-0.08004 1.5,-0.53125 0.35162,-0.451206 0.40622,-1.079217 0.15625,-1.59375 -0.24996,-0.514531 -0.77172,-0.841263 -1.34375,-0.84375 L 149.1875,47.125 c 0.47345,-1.985082 1.42507,-3.843994 2.875,-5.40625 z" id="path12260" style="fill:#2a517f;fill-opacity:1;fill-rule:evenodd;stroke:none"/>
    <path d="m 538.3125,153.08434 c -0.75443,0.0987 -1.31839,0.76806 -1.3125,1.55769 l 0,57.43991 c -2.02646,-0.25435 -4.00165,-1.02441 -5.71875,-2.33654 L 537,225.84155 l 0,0.19471 c -0.006,0.43674 0.17302,0.84053 0.46875,1.13582 l 1.0625,2.98558 1.09375,-3.11539 c 0.23042,-0.28277 0.3802,-0.62408 0.375,-1.00601 l 0,-0.0325 5.75,-16.25841 c -1.74658,1.30176 -3.72158,2.07714 -5.75,2.33654 l 0,-57.43991 c 0.003,-0.44917 -0.17671,-0.86985 -0.5,-1.16827 -0.32327,-0.29841 -0.75834,-0.44553 -1.1875,-0.38942 z" id="path12258" style="fill:#2a517f;fill-opacity:1;fill-rule:evenodd;stroke:none"/>
    <path d="m 810,206.53266 c -0.52887,0.0795 -0.98792,0.45878 -1.1875,0.97355 -0.19959,0.51479 -0.10954,1.08737 0.21875,1.52525 l 60.65625,84.34255 c -1.76686,1.05014 -3.81136,1.63944 -5.9375,1.65505 l 13.875,9.3786 0.0937,0.12981 c 0.25011,0.40392 0.67506,0.63459 1.125,0.68149 l 2.46875,1.6875 -0.84375,-2.98558 c 0.0652,-0.44015 -0.0592,-0.88453 -0.34375,-1.23317 l -0.0312,-0.0324 -4.75,-16.61539 c -0.6515,2.13542 -1.79831,3.9814 -3.28125,5.45193 l -60.625,-84.34256 c -0.33115,-0.46756 -0.88514,-0.70518 -1.4375,-0.61658 z" id="path11681" style="fill:#2a517f;fill-opacity:1;fill-rule:evenodd;stroke:none"/>
    <switch style="font-size:72px;font-style:normal;font-weight:normal;fill:#2a5180;fill-opacity:1;stroke:none;font-family:Bitstream Vera Serif"><text x="323.84299" y="72.176003" id="text10343-ca" xml:space="preserve" style="font-size:72px;font-style:normal;font-weight:normal;fill:#2a5180;fill-opacity:1;stroke:none;font-family:Bitstream Vera Serif" systemLanguage="ca"><tspan x="323.84299" y="72.176003" id="tspan10347-ca" style="font-size:32px;font-style:normal;font-variant:normal;font-weight:normal;font-stretch:normal;text-align:center;text-anchor:middle;fill:#2a5180;fill-opacity:1;font-family:Bitstream Vera Sans">Capçal</tspan></text><text x="323.84299" y="72.176003" id="text10343" xml:space="preserve" style="font-size:72px;font-style:normal;font-weight:normal;fill:#2a5180;fill-opacity:1;stroke:none;font-family:Bitstream Vera Serif"><tspan x="323.84299" y="72.176003" id="tspan10347" style="font-size:32px;font-style:normal;font-variant:normal;font-weight:normal;font-stretch:normal;text-align:center;text-anchor:middle;fill:#2a5180;fill-opacity:1;font-family:Bitstream Vera Sans">Headwall</tspan></text></switch>
    <switch style="font-size:73.37155151px;font-style:normal;font-weight:normal;fill:#2a5180;fill-opacity:1;stroke:none;font-family:Bitstream Vera Serif"><text x="820.12787" y="152.06438" transform="scale(0.98130674,1.0190494)" id="text10425-ca" xml:space="preserve" style="font-size:73.37155151px;font-style:normal;font-weight:normal;fill:#2a5180;fill-opacity:1;stroke:none;font-family:Bitstream Vera Serif" systemLanguage="ca"><tspan x="820.12787" y="152.06438" id="tspan10429-ca" style="font-size:32.60958099px;font-style:normal;font-variant:normal;font-weight:normal;font-stretch:normal;text-align:center;text-anchor:middle;fill:#2a5180;fill-opacity:1;font-family:Bitstream Vera Sans">Morena</tspan><tspan x="820.12787" y="192.82635" id="tspan10435-ca" style="font-size:32.60958099px;font-style:normal;font-variant:normal;font-weight:normal;font-stretch:normal;text-align:center;text-anchor:middle;fill:#2a5180;fill-opacity:1;font-family:Bitstream Vera Sans">terminal</tspan></text><text x="820.12787" y="152.06438" transform="scale(0.98130674,1.0190494)" id="text10425" xml:space="preserve" style="font-size:73.37155151px;font-style:normal;font-weight:normal;fill:#2a5180;fill-opacity:1;stroke:none;font-family:Bitstream Vera Serif"><tspan x="820.12787" y="152.06438" id="tspan10429" style="font-size:32.60958099px;font-style:normal;font-variant:normal;font-weight:normal;font-stretch:normal;text-align:center;text-anchor:middle;fill:#2a5180;fill-opacity:1;font-family:Bitstream Vera Sans">Terminal</tspan><tspan x="820.12787" y="192.82635" id="tspan10435" style="font-size:32.60958099px;font-style:normal;font-variant:normal;font-weight:normal;font-stretch:normal;text-align:center;text-anchor:middle;fill:#2a5180;fill-opacity:1;font-family:Bitstream Vera Sans">Moraine</tspan></text></switch>
    <path d="M 469.99985,-33.141002 363.87946,-45.262832" id="path11690" style="fill:none;stroke:#2a517f;stroke-width:3;stroke-linecap:round;stroke-linejoin:miter;stroke-miterlimit:4;stroke-opacity:1;stroke-dasharray:none;marker-mid:none;marker-end:url(#Arrow2Mend)"/>
    <switch style="font-size:72px;font-style:normal;font-weight:normal;fill:#2a5180;fill-opacity:1;stroke:none;font-family:Bitstream Vera Serif"><text x="369.92188" y="192.36145" id="text10343-0-ca" xml:space="preserve" style="font-size:72px;font-style:normal;font-weight:normal;fill:#2a5180;fill-opacity:1;stroke:none;font-family:Bitstream Vera Serif" systemLanguage="ca"><tspan x="369.92188" y="192.36145" id="tspan10347-5-ca" style="font-size:32px;font-style:normal;font-variant:normal;font-weight:normal;font-stretch:normal;text-align:center;text-anchor:middle;fill:#2a5180;fill-opacity:1;font-family:Bitstream Vera Sans">Buit del capçal</tspan></text><text x="369.92188" y="192.36145" id="text10343-0" xml:space="preserve" style="font-size:72px;font-style:normal;font-weight:normal;fill:#2a5180;fill-opacity:1;stroke:none;font-family:Bitstream Vera Serif"><tspan x="369.92188" y="192.36145" id="tspan10347-5" style="font-size:32px;font-style:normal;font-variant:normal;font-weight:normal;font-stretch:normal;text-align:center;text-anchor:middle;fill:#2a5180;fill-opacity:1;font-family:Bitstream Vera Sans">Headwall gap</tspan></text></switch>
    <switch style="font-size:72px;font-style:normal;font-weight:normal;fill:#2a5180;fill-opacity:1;stroke:none;font-family:Bitstream Vera Serif"><text x="265.92188" y="116.36145" id="text10343-1-ca" xml:space="preserve" style="font-size:72px;font-style:normal;font-weight:normal;fill:#2a5180;fill-opacity:1;stroke:none;font-family:Bitstream Vera Serif" systemLanguage="ca"><tspan x="265.92188" y="116.36145" id="tspan10347-0-ca" style="font-size:32px;font-style:normal;font-variant:normal;font-weight:normal;font-stretch:normal;text-align:center;text-anchor:middle;fill:#2a5180;fill-opacity:1;font-family:Bitstream Vera Sans">Randkluft</tspan></text><text x="265.92188" y="116.36145" id="text10343-1" xml:space="preserve" style="font-size:72px;font-style:normal;font-weight:normal;fill:#2a5180;fill-opacity:1;stroke:none;font-family:Bitstream Vera Serif"><tspan x="265.92188" y="116.36145" id="tspan10347-0" style="font-size:32px;font-style:normal;font-variant:normal;font-weight:normal;font-stretch:normal;text-align:center;text-anchor:middle;fill:#2a5180;fill-opacity:1;font-family:Bitstream Vera Sans">Randkluft</tspan></text></switch>
    <switch style="font-size:72px;font-style:normal;font-weight:normal;fill:#2a5180;fill-opacity:1;stroke:none;font-family:Bitstream Vera Serif"><text x="349.92188" y="152.36145" id="text10343-5-ca" xml:space="preserve" style="font-size:72px;font-style:normal;font-weight:normal;fill:#2a5180;fill-opacity:1;stroke:none;font-family:Bitstream Vera Serif" systemLanguage="ca"><tspan x="349.92188" y="152.36145" id="tspan10347-06-ca" style="font-size:32px;font-style:normal;font-variant:normal;font-weight:normal;font-stretch:normal;text-align:center;text-anchor:middle;fill:#2a5180;fill-opacity:1;font-family:Bitstream Vera Sans">Rimaia</tspan></text><text x="349.92188" y="152.36145" id="text10343-5" xml:space="preserve" style="font-size:72px;font-style:normal;font-weight:normal;fill:#2a5180;fill-opacity:1;stroke:none;font-family:Bitstream Vera Serif"><tspan x="349.92188" y="152.36145" id="tspan10347-06" style="font-size:32px;font-style:normal;font-variant:normal;font-weight:normal;font-stretch:normal;text-align:center;text-anchor:middle;fill:#2a5180;fill-opacity:1;font-family:Bitstream Vera Sans">Bergschrund</tspan></text></switch>
    <path d="m 622.4853,-55.069097 -16.0625,3.90625 -0.15625,-0.03125 c -0.15528,-0.02456 -0.31347,-0.02456 -0.46875,0 -0.26839,0.04913 -0.49212,0.17675 -0.6875,0.34375 l -2.96875,0.71875 2.84375,1.4375 c 0.24141,0.25501 0.56514,0.432564 0.9375,0.46875 l 14.9375,7.53125 c -1.0493,-1.88126 -1.57774,-3.952374 -1.59375,-6 l 92.78125,10.59375 c 0.56001,0.116675 1.14837,-0.08004 1.5,-0.53125 0.35162,-0.451206 0.40622,-1.079217 0.15625,-1.59375 -0.24996,-0.514531 -0.77172,-0.841263 -1.34375,-0.84375 l -92.75,-10.59375 c 0.47345,-1.985082 1.42507,-3.843994 2.875,-5.40625 z" id="path12260-3" style="fill:#2a517f;fill-opacity:1;fill-rule:evenodd;stroke:none"/>
    <path d="m 638.4853,-83.069097 -16.0625,3.90625 -0.15625,-0.03125 c -0.15528,-0.02456 -0.31347,-0.02456 -0.46875,0 -0.26839,0.04913 -0.49212,0.17675 -0.6875,0.34375 l -2.96875,0.71875 2.84375,1.4375 c 0.24141,0.25501 0.56514,0.432564 0.9375,0.46875 l 14.9375,7.53125 c -1.0493,-1.88126 -1.57774,-3.952374 -1.59375,-6 l 92.78125,10.59375 c 0.56001,0.116675 1.14837,-0.08004 1.5,-0.53125 0.35162,-0.451206 0.40622,-1.079217 0.15625,-1.59375 -0.24996,-0.514531 -0.77172,-0.841263 -1.34375,-0.84375 l -92.75,-10.59375 c 0.47345,-1.985082 1.42507,-3.843994 2.875,-5.40625 z" id="path12260-9" style="fill:#2a517f;fill-opacity:1;fill-rule:evenodd;stroke:none"/>
    <path d="m 678.4853,-109.0691 -16.0625,3.90625 -0.15625,-0.0312 c -0.15528,-0.0246 -0.31347,-0.0246 -0.46875,0 -0.26839,0.0491 -0.49212,0.17675 -0.6875,0.34375 l -2.96875,0.71875 2.84375,1.4375 c 0.24141,0.25501 0.56514,0.43257 0.9375,0.46875 l 14.9375,7.531253 c -1.0493,-1.88126 -1.57774,-3.952374 -1.59375,-6.000003 l 92.78125,10.593753 c 0.56001,0.116675 1.14837,-0.08004 1.5,-0.53125 0.35162,-0.451206 0.40622,-1.079217 0.15625,-1.59375 -0.24996,-0.514531 -0.77172,-0.841263 -1.34375,-0.84375 l -92.75,-10.593753 c 0.47345,-1.98508 1.42507,-3.84399 2.875,-5.40625 z" id="path12260-0" style="fill:#2a517f;fill-opacity:1;fill-rule:evenodd;stroke:none"/>
    <path d="m 869.79687,-126.09899 c -0.75442,0.0987 -1.31839,0.76806 -1.3125,1.55769 l 0,57.439907 c -2.02646,-0.25435 -4.00165,-1.02441 -5.71875,-2.33654 l 5.71875,16.09615 0,0.19471 c -0.006,0.43674 0.17302,0.84053 0.46875,1.13582 l 1.0625,2.98558 1.09375,-3.11539 c 0.23042,-0.28277 0.3802,-0.62408 0.375,-1.00601 l 0,-0.0325 5.75,-16.25841 c -1.74658,1.30176 -3.72158,2.07714 -5.75,2.33654 l 0,-57.439907 c 0.003,-0.44917 -0.1767,-0.86985 -0.5,-1.16827 -0.32326,-0.29841 -0.75833,-0.44553 -1.1875,-0.38942 z" id="path12258-2" style="fill:#2a517f;fill-opacity:1;fill-rule:evenodd;stroke:none"/>
    <path d="m 244.8261,160.86384 c -0.5718,-0.50191 -1.447,-0.4843 -2.0366,0.041 l -43.1722,37.88794 c -1.1456,-1.69091 -1.8697,-3.68342 -2.0161,-5.8395 l -8.3258,14.91547 -0.1463,0.12844 c -0.3349,0.28056 -0.5177,0.68445 -0.5446,1.10147 l -1.5431,2.7679 3.063,-1.23283 c 0.3645,-0.0134 0.7199,-0.12589 1.0035,-0.38172 l 0.024,-0.0214 16.0127,-6.40246 c -2.1305,-0.45411 -4.016,-1.42708 -5.5489,-2.78054 l 43.1723,-37.88794 c 0.3376,-0.29628 0.5372,-0.70657 0.5483,-1.14641 0.011,-0.43983 -0.1654,-0.86389 -0.4906,-1.1494 z" id="path12258-9" style="fill:#2a517f;fill-opacity:1;fill-rule:evenodd;stroke:none"/>
    <path d="m 194.647,137.11292 c -0.5718,-0.50191 -1.447,-0.4843 -2.0366,0.041 l -43.1722,37.88794 c -1.1456,-1.69091 -1.8697,-3.68343 -2.0161,-5.83951 l -8.3258,14.91548 -0.1463,0.12843 c -0.3349,0.28057 -0.5177,0.68445 -0.5446,1.10148 l -1.5431,2.7679 3.063,-1.23283 c 0.3645,-0.0134 0.7199,-0.12589 1.0035,-0.38172 l 0.024,-0.0214 16.0127,-6.40246 c -2.1305,-0.45411 -4.016,-1.42709 -5.5489,-2.78055 l 43.1723,-37.88793 c 0.3376,-0.29628 0.5372,-0.70657 0.5483,-1.14641 0.011,-0.43983 -0.1654,-0.86389 -0.4906,-1.1494 z" id="path12258-9-3" style="fill:#2a517f;fill-opacity:1;fill-rule:evenodd;stroke:none"/>
    <path d="m 277.0101,200.25398 c 0.5289,0.0795 0.9879,0.45878 1.1875,0.97355 0.1996,0.51479 0.1095,1.08737 -0.2188,1.52525 l -60.6562,84.34255 c 1.7669,1.05014 3.8114,1.63944 5.9375,1.65505 l -13.875,9.3786 -0.094,0.12981 c -0.2501,0.40392 -0.6751,0.63459 -1.125,0.68149 l -2.4688,1.68751 0.8438,-2.98559 c -0.065,-0.44015 0.059,-0.88453 0.3437,-1.23317 l 0.031,-0.0324 4.75,-16.61539 c 0.6515,2.13542 1.7984,3.9814 3.2813,5.45193 l 60.625,-84.34256 c 0.3311,-0.46756 0.8851,-0.70518 1.4375,-0.61658 z" id="path11681-9" style="fill:#2a517f;fill-opacity:1;fill-rule:evenodd;stroke:none"/>
  </g>
</svg>
